M48
;GenerationSoftware,Autodesk,EAGLE,9.5.1*%
;CreationDate,2020-02-16T12:25:53Z*%
FMAT,2
ICI,OFF
METRIC,TZ,000.000
T3C0.350
T2C0.400
T1C3.000
%
G90
M71
T1
X-4953Y39878
X63373Y39878
X63373Y69342
X-4953Y69342
T2
X-6858Y58928
X-5334Y58928
X-3048Y52070
X-3048Y49530
X-3048Y50800
X-3048Y44450
X-3048Y43180
X61722Y44450
X61722Y49530
X64516Y51054
X61722Y51054
X61722Y45720
X61722Y43180
X66040Y62738
X66040Y61976
X66040Y60960
X66040Y60198
X66040Y57150
X64770Y58166
X58928Y58166
X57150Y56642
X44450Y68072
X48260Y67818
X45974Y61468
X55372Y61976
X58674Y65786
X45212Y63500
X50546Y61976
X35814Y67818
X30988Y68326
X31242Y65786
X33782Y64770
X31242Y58166
X28194Y58166
X25654Y56896
X20320Y56896
X21082Y59944
X14224Y56896
X17018Y56896
X13208Y62484
X13208Y60706
X1524Y71882
X5588Y68580
X6096Y65532
X6096Y63500
X6096Y60960
X6604Y56388
X8128Y68326
X8636Y65278
X13208Y68072
X-7493Y62230
X-7493Y60706
X-2032Y58928
X508Y58674
X4826Y57912
X-508Y57404
X4572Y50292
X4572Y48260
X381Y48006
X7620Y53594
X14224Y54864
X17018Y54864
X20320Y54864
X12954Y46482
X9906Y41402
X5842Y45720
X5588Y41910
X762Y37338
X6858Y37338
X7112Y71882
X20828Y71882
X25400Y71882
X32512Y71882
X40767Y71882
X50546Y71882
X60452Y71882
X13716Y37338
X20320Y37338
X28702Y37338
X40894Y37338
X35306Y38608
X48514Y37338
X55118Y37846
X58928Y45974
X21590Y68326
X17526Y68326
X27940Y67945
X59944Y48006
X55118Y45974
X53848Y43180
X51816Y40894
X47244Y39370
X45212Y41402
X45212Y49276
X45720Y47752
X39370Y54864
X41656Y54864
X42672Y49784
X36830Y49530
X35052Y49530
X32258Y54864
X30099Y51689
X29845Y49403
X30607Y48260
X28829Y47244
X30607Y46228
X34925Y43434
X37465Y43434
X35179Y41402
X38481Y41402
X42037Y41402
X42037Y46228
X30607Y41402
X27559Y41402
X23749Y41402
X18669Y41402
X14351Y41402
X20955Y47244
X22225Y45212
X18161Y43815
X381Y45974
X8636Y60452
X8890Y49530
X52324Y59944
X50038Y52578
X54864Y49784
X24638Y49276
X49530Y52959
X20447Y50419
X10160Y52578
X11684Y54610
X24257Y44196
X47498Y49657
X55372Y48006
X0Y65532
X17780Y59944
X19558Y66040
X57912Y42926
X1016Y41656
X-3175Y56388
X4572Y61976
X41148Y65786
X53340Y67056
X55880Y40640
X30734Y39370
X23368Y39370
X13716Y39370
X39624Y39370
X57658Y70104
X-508Y52832
X22606Y52578
X58166Y50038
X12700Y71882
X23114Y66548
X35814Y62992
X35052Y60706
X38100Y58674
X41148Y58674
X24130Y63500
X41148Y61722
X23114Y56896
X29210Y60706
X28956Y63246
X40386Y48260
X54102Y68834
X57150Y59436
X57150Y60198
X53340Y68834
X52578Y68834
X254Y69850
X1016Y69850
X-508Y69850
X10922Y69088
X11684Y69088
X12446Y69088
X56642Y52880
X57150Y60960
X9652Y55880
X2540Y53086
X2540Y52324
X2540Y51562
X60960Y58928
X61722Y58928
X62484Y58928
X46736Y55118
X47498Y55118
X48260Y55118
X10414Y55880
X11176Y55880
X7112Y40640
X6350Y40640
X46736Y40386
X47498Y40386
X14605Y48768
X14605Y52578
X12192Y63754
X21170Y61126
X22772Y62826
X38608Y60706
X49530Y61976
X57702Y55602
X33274Y62738
X57658Y54102
X-127Y54864
X-889Y54864
T3
X26162Y54102
X25400Y54102
X23726Y53467
X24234Y52959
M30