G04 EAGLE Gerber RS-274X export*
G75*
%MOMM*%
%FSLAX34Y34*%
%LPD*%
%INSolderpaste Top*%
%IPPOS*%
%AMOC8*
5,1,8,0,0,1.08239X$1,22.5*%
G01*
%ADD10R,4.060000X1.520000*%
%ADD11R,1.100000X1.000000*%
%ADD12R,1.600000X1.400000*%
%ADD13R,1.000000X1.100000*%
%ADD14R,0.500000X1.050000*%
%ADD15R,1.050000X0.500000*%
%ADD16R,1.200000X0.400000*%
%ADD17R,0.600000X0.900000*%
%ADD18R,0.800000X0.800000*%
%ADD19R,2.400000X1.600000*%
%ADD20R,1.600000X1.800000*%
%ADD21R,2.650000X0.850000*%
%ADD22R,3.550000X0.850000*%
%ADD23R,1.600000X2.400000*%


D10*
X-59690Y495300D03*
X-59690Y469900D03*
X-59690Y444500D03*
X-59690Y574040D03*
X-59690Y548640D03*
X-59690Y523240D03*
X645160Y495300D03*
X645160Y469900D03*
X645160Y444500D03*
D11*
X290440Y525780D03*
X273440Y525780D03*
X193920Y449580D03*
X176920Y449580D03*
X163440Y505460D03*
X146440Y505460D03*
X193920Y525780D03*
X176920Y525780D03*
X115960Y449580D03*
X132960Y449580D03*
D12*
X159780Y525780D03*
X129780Y525780D03*
X149620Y429260D03*
X119620Y429260D03*
D11*
X303920Y505460D03*
X320920Y505460D03*
X273440Y449580D03*
X290440Y449580D03*
D12*
X307580Y546100D03*
X337580Y546100D03*
X226300Y436880D03*
X256300Y436880D03*
D11*
X448700Y508000D03*
X465700Y508000D03*
X435220Y447040D03*
X418220Y447040D03*
D12*
X431560Y528320D03*
X401560Y528320D03*
X404100Y426720D03*
X434100Y426720D03*
D13*
X256540Y453780D03*
X256540Y470780D03*
X76200Y613020D03*
X76200Y596020D03*
D11*
X259960Y518160D03*
X242960Y518160D03*
X143900Y647700D03*
X160900Y647700D03*
X113420Y591820D03*
X130420Y591820D03*
X85480Y449580D03*
X102480Y449580D03*
D12*
X178040Y647700D03*
X208040Y647700D03*
X66280Y579120D03*
X96280Y579120D03*
D11*
X526660Y508000D03*
X509660Y508000D03*
D12*
X518400Y528320D03*
X548400Y528320D03*
D11*
X450460Y647700D03*
X433460Y647700D03*
X450460Y591820D03*
X433460Y591820D03*
D12*
X467600Y668020D03*
X497600Y668020D03*
X442200Y571500D03*
X472200Y571500D03*
D11*
X130420Y647700D03*
X113420Y647700D03*
X290440Y647700D03*
X273440Y647700D03*
X273440Y591820D03*
X290440Y591820D03*
D12*
X256300Y647700D03*
X226300Y647700D03*
X226300Y591820D03*
X256300Y591820D03*
D13*
X175260Y628260D03*
X175260Y611260D03*
D11*
X334400Y571500D03*
X351400Y571500D03*
X402980Y668020D03*
X419980Y668020D03*
D12*
X335520Y612140D03*
X365520Y612140D03*
X385840Y647700D03*
X355840Y647700D03*
D13*
X58420Y503800D03*
X58420Y486800D03*
D11*
X496180Y447040D03*
X479180Y447040D03*
D14*
X419100Y509840D03*
X419100Y485840D03*
D15*
X474280Y528320D03*
X450280Y528320D03*
D14*
X495300Y465520D03*
X495300Y489520D03*
D15*
X329500Y525780D03*
X305500Y525780D03*
D14*
X358140Y445200D03*
X358140Y469200D03*
X358140Y509840D03*
X358140Y485840D03*
X378460Y509840D03*
X378460Y485840D03*
D16*
X436700Y487270D03*
X436700Y480770D03*
X436700Y474270D03*
X436700Y467770D03*
X477700Y467770D03*
X477700Y474270D03*
X477700Y480770D03*
X477700Y487270D03*
X116660Y487270D03*
X116660Y480770D03*
X116660Y474270D03*
X116660Y467770D03*
X157660Y467770D03*
X157660Y474270D03*
X157660Y480770D03*
X157660Y487270D03*
D17*
X511200Y466020D03*
X520700Y466020D03*
X530200Y466020D03*
X530200Y489020D03*
X520700Y489020D03*
X511200Y489020D03*
D16*
X276680Y487270D03*
X276680Y480770D03*
X276680Y474270D03*
X276680Y467770D03*
X317680Y467770D03*
X317680Y474270D03*
X317680Y480770D03*
X317680Y487270D03*
X116660Y629510D03*
X116660Y623010D03*
X116660Y616510D03*
X116660Y610010D03*
X157660Y610010D03*
X157660Y616510D03*
X157660Y623010D03*
X157660Y629510D03*
X276680Y629510D03*
X276680Y623010D03*
X276680Y616510D03*
X276680Y610010D03*
X317680Y610010D03*
X317680Y616510D03*
X317680Y623010D03*
X317680Y629510D03*
X436700Y629510D03*
X436700Y623010D03*
X436700Y616510D03*
X436700Y610010D03*
X477700Y610010D03*
X477700Y616510D03*
X477700Y623010D03*
X477700Y629510D03*
D13*
X55000Y469900D03*
X72000Y469900D03*
X496180Y508000D03*
X479180Y508000D03*
X392040Y447040D03*
X375040Y447040D03*
D11*
X337820Y453780D03*
X337820Y470780D03*
D13*
X496180Y426720D03*
X479180Y426720D03*
D11*
X520700Y433460D03*
X520700Y450460D03*
X337820Y440300D03*
X337820Y423300D03*
D13*
X115960Y505460D03*
X132960Y505460D03*
D11*
X358140Y524900D03*
X358140Y541900D03*
X337820Y484260D03*
X337820Y501260D03*
D13*
X146440Y449580D03*
X163440Y449580D03*
X392040Y467360D03*
X375040Y467360D03*
D11*
X195580Y483480D03*
X195580Y466480D03*
X175260Y466480D03*
X175260Y483480D03*
D13*
X193920Y505460D03*
X176920Y505460D03*
X102480Y429260D03*
X85480Y429260D03*
D11*
X215900Y484260D03*
X215900Y501260D03*
D13*
X273440Y546100D03*
X290440Y546100D03*
X273440Y429260D03*
X290440Y429260D03*
D11*
X236220Y470780D03*
X236220Y453780D03*
D13*
X85480Y469900D03*
X102480Y469900D03*
D11*
X398780Y494420D03*
X398780Y511420D03*
D13*
X448700Y426720D03*
X465700Y426720D03*
D11*
X236220Y501260D03*
X236220Y484260D03*
X76200Y626500D03*
X76200Y643500D03*
X256540Y484260D03*
X256540Y501260D03*
D13*
X143900Y668020D03*
X160900Y668020D03*
X113420Y571500D03*
X130420Y571500D03*
D11*
X96520Y596020D03*
X96520Y613020D03*
X96520Y626500D03*
X96520Y643500D03*
D13*
X557140Y508000D03*
X540140Y508000D03*
D11*
X78740Y503800D03*
X78740Y486800D03*
D13*
X113420Y668020D03*
X130420Y668020D03*
X433460Y668020D03*
X450460Y668020D03*
X463940Y591820D03*
X480940Y591820D03*
X143900Y591820D03*
X160900Y591820D03*
D11*
X195580Y611260D03*
X195580Y628260D03*
D13*
X290440Y668020D03*
X273440Y668020D03*
X273440Y571500D03*
X290440Y571500D03*
X351400Y591820D03*
X334400Y591820D03*
X320920Y571500D03*
X303920Y571500D03*
X419980Y647700D03*
X402980Y647700D03*
X273440Y505460D03*
X290440Y505460D03*
X389500Y668020D03*
X372500Y668020D03*
X402980Y627380D03*
X419980Y627380D03*
X320920Y591820D03*
X303920Y591820D03*
D11*
X256540Y611260D03*
X256540Y628260D03*
D13*
X402980Y607060D03*
X419980Y607060D03*
X463940Y647700D03*
X480940Y647700D03*
X303920Y647700D03*
X320920Y647700D03*
X448700Y447040D03*
X465700Y447040D03*
X303920Y449580D03*
X320920Y449580D03*
D11*
X99060Y486800D03*
X99060Y503800D03*
X320920Y429260D03*
X303920Y429260D03*
D13*
X378460Y541900D03*
X378460Y524900D03*
D11*
X514740Y568960D03*
X531740Y568960D03*
D18*
X500380Y551300D03*
X500380Y566300D03*
D13*
X531740Y548640D03*
X514740Y548640D03*
D18*
X500380Y606940D03*
X500380Y591940D03*
D13*
X514740Y589280D03*
X531740Y589280D03*
D11*
X514740Y609600D03*
X531740Y609600D03*
D19*
X553720Y604760D03*
X553720Y634760D03*
X553720Y578880D03*
X553720Y548880D03*
D18*
X500380Y647580D03*
X500380Y632580D03*
D13*
X514740Y629920D03*
X531740Y629920D03*
D11*
X514740Y650240D03*
X531740Y650240D03*
D20*
X547400Y670560D03*
X519400Y670560D03*
D21*
X641350Y644800D03*
X641350Y629800D03*
X641350Y614800D03*
X641350Y599800D03*
D22*
X602350Y644800D03*
X602350Y629800D03*
X602350Y614800D03*
X602350Y599800D03*
D11*
X16900Y568960D03*
X33900Y568960D03*
D18*
X48260Y551300D03*
X48260Y566300D03*
D13*
X16900Y548640D03*
X33900Y548640D03*
D18*
X48260Y606940D03*
X48260Y591940D03*
D13*
X33900Y589280D03*
X16900Y589280D03*
D11*
X33900Y609600D03*
X16900Y609600D03*
D23*
X10400Y675640D03*
X40400Y675640D03*
X40400Y523240D03*
X10400Y523240D03*
D18*
X48260Y647580D03*
X48260Y632580D03*
D13*
X33900Y629920D03*
X16900Y629920D03*
D11*
X33900Y650240D03*
X16900Y650240D03*
D20*
X67280Y670560D03*
X95280Y670560D03*
D21*
X-54610Y599800D03*
X-54610Y614800D03*
X-54610Y629800D03*
X-54610Y644800D03*
D22*
X-15610Y599800D03*
X-15610Y614800D03*
X-15610Y629800D03*
X-15610Y644800D03*
D21*
X641350Y571140D03*
X641350Y556140D03*
X641350Y541140D03*
X641350Y526140D03*
D22*
X602350Y571140D03*
X602350Y556140D03*
X602350Y541140D03*
X602350Y526140D03*
M02*
