M48
;GenerationSoftware,Autodesk,EAGLE,9.5.2*%
;CreationDate,2020-02-16T21:43:23Z*%
FMAT,2
ICI,OFF
METRIC,TZ,000.000
T5C0.200
T4C0.250
T3C0.350
T2C0.400
T1C3.000
%
G90
M71
T1
X99060Y74930
X-7436Y74930
X51562Y74930
T2
X101727Y75692
X62992Y72835
X69945Y79248
X74390Y79248
X72168Y79248
X92964Y76454
X96552Y78327
X54907Y75735
X80010Y79280
X103378Y78232
X83852Y73406
X80804Y73406
X88678Y73406
X96012Y77565
X114046Y77470
X114046Y72390
X116586Y78994
X116586Y70866
X60039Y71755
X57150Y71692
X89884Y76327
X89440Y73406
X52070Y70676
X52832Y70676
X53594Y70676
X53086Y73216
X82836Y73406
X81820Y73406
X76676Y79248
X67913Y79248
X82296Y79280
X92202Y76454
X110045Y76708
X101092Y76454
X110045Y75692
X54227Y73089
X86614Y70612
X65786Y72808
X84169Y79312
X97028Y71540
X110236Y74168
X76203Y72360
X71994Y74937
X91186Y76327
X78159Y74155
X70993Y75438
X78239Y79001
X94234Y76454
X60032Y72771
X112776Y74930
X113538Y74930
X64897Y76073
T3
X65026Y77046
X72073Y73533
X74168Y75375
T4
X93218Y72517
X87662Y76105
T5
X67564Y72739
X93218Y73501
X70612Y72739
M30