G04 EAGLE Gerber RS-274X export*
G75*
%MOMM*%
%FSLAX34Y34*%
%LPD*%
%INSoldermask Top*%
%IPPOS*%
%AMOC8*
5,1,8,0,0,1.08239X$1,22.5*%
G01*
%ADD10C,3.203200*%
%ADD11R,14.732000X3.048000*%
%ADD12R,4.263200X1.723200*%
%ADD13R,1.803200X2.003200*%
%ADD14R,2.603200X1.803200*%
%ADD15R,1.203200X1.303200*%
%ADD16R,1.303200X1.203200*%
%ADD17R,1.803200X1.603200*%
%ADD18R,1.603200X1.803200*%
%ADD19R,2.003200X1.803200*%
%ADD20R,2.003200X1.703200*%
%ADD21R,4.749800X0.952500*%
%ADD22R,1.423200X0.823200*%
%ADD23R,1.003200X1.003200*%
%ADD24R,1.203200X1.603200*%
%ADD25R,2.853200X1.053200*%
%ADD26R,3.753200X1.053200*%
%ADD27C,4.219200*%

G36*
X685890Y743474D02*
X685890Y743474D01*
X685981Y743481D01*
X686011Y743493D01*
X686043Y743499D01*
X686123Y743541D01*
X686207Y743577D01*
X686239Y743603D01*
X686260Y743614D01*
X686282Y743637D01*
X686338Y743682D01*
X688878Y746222D01*
X688931Y746296D01*
X688991Y746365D01*
X689003Y746395D01*
X689022Y746421D01*
X689049Y746508D01*
X689083Y746593D01*
X689087Y746634D01*
X689094Y746657D01*
X689093Y746689D01*
X689101Y746760D01*
X689101Y792480D01*
X689087Y792570D01*
X689079Y792661D01*
X689067Y792691D01*
X689062Y792723D01*
X689019Y792803D01*
X688983Y792887D01*
X688957Y792919D01*
X688946Y792940D01*
X688923Y792962D01*
X688878Y793018D01*
X686338Y795558D01*
X686264Y795611D01*
X686195Y795671D01*
X686165Y795683D01*
X686139Y795702D01*
X686052Y795729D01*
X685967Y795763D01*
X685926Y795767D01*
X685903Y795774D01*
X685871Y795773D01*
X685800Y795781D01*
X-35560Y795781D01*
X-35650Y795767D01*
X-35741Y795759D01*
X-35771Y795747D01*
X-35803Y795742D01*
X-35883Y795699D01*
X-35967Y795663D01*
X-35999Y795637D01*
X-36020Y795626D01*
X-36042Y795603D01*
X-36098Y795558D01*
X-41178Y790478D01*
X-41231Y790404D01*
X-41291Y790335D01*
X-41303Y790305D01*
X-41322Y790279D01*
X-41349Y790192D01*
X-41383Y790107D01*
X-41387Y790066D01*
X-41394Y790043D01*
X-41393Y790011D01*
X-41401Y789940D01*
X-41401Y764540D01*
X-41387Y764450D01*
X-41379Y764359D01*
X-41367Y764329D01*
X-41362Y764297D01*
X-41319Y764217D01*
X-41283Y764133D01*
X-41257Y764101D01*
X-41246Y764080D01*
X-41223Y764058D01*
X-41178Y764002D01*
X-36098Y758922D01*
X-36024Y758869D01*
X-35955Y758809D01*
X-35925Y758797D01*
X-35899Y758778D01*
X-35812Y758751D01*
X-35727Y758717D01*
X-35686Y758713D01*
X-35663Y758706D01*
X-35631Y758707D01*
X-35560Y758699D01*
X502920Y758699D01*
X503010Y758714D01*
X503101Y758721D01*
X503131Y758733D01*
X503163Y758739D01*
X503243Y758781D01*
X503327Y758817D01*
X503359Y758843D01*
X503380Y758854D01*
X503402Y758877D01*
X503458Y758922D01*
X508315Y763779D01*
X581345Y763779D01*
X583439Y761685D01*
X583439Y746760D01*
X583454Y746670D01*
X583461Y746579D01*
X583473Y746549D01*
X583479Y746517D01*
X583521Y746437D01*
X583557Y746353D01*
X583583Y746321D01*
X583594Y746300D01*
X583617Y746278D01*
X583662Y746222D01*
X586202Y743682D01*
X586276Y743629D01*
X586345Y743569D01*
X586375Y743557D01*
X586401Y743538D01*
X586488Y743511D01*
X586573Y743477D01*
X586614Y743473D01*
X586637Y743466D01*
X586669Y743467D01*
X586740Y743459D01*
X685800Y743459D01*
X685890Y743474D01*
G37*
D10*
X515620Y749300D03*
D11*
X574040Y779780D03*
D12*
X1166813Y774700D03*
X1166813Y749300D03*
X1166813Y723900D03*
D13*
X557500Y718820D03*
X585500Y718820D03*
D14*
X911860Y749540D03*
X911860Y779540D03*
D15*
X618490Y759850D03*
X618490Y776850D03*
D16*
X613800Y739140D03*
X630800Y739140D03*
D15*
X772160Y732400D03*
X772160Y715400D03*
D17*
X644285Y718820D03*
X614285Y718820D03*
D18*
X812800Y719060D03*
X812800Y749060D03*
D15*
X812800Y783200D03*
X812800Y766200D03*
X751840Y762880D03*
X751840Y745880D03*
D18*
X833120Y749060D03*
X833120Y719060D03*
D17*
X729220Y779780D03*
X759220Y779780D03*
D15*
X866140Y752720D03*
X866140Y735720D03*
D19*
X886460Y720060D03*
X886460Y748060D03*
D15*
X942340Y732400D03*
X942340Y715400D03*
D14*
X942340Y749540D03*
X942340Y779540D03*
D16*
X693030Y779780D03*
X676030Y779780D03*
D15*
X886460Y783200D03*
X886460Y766200D03*
D20*
X-7620Y719800D03*
X-7620Y778800D03*
D21*
X144780Y727012D03*
X144780Y771589D03*
D20*
X195580Y719800D03*
X195580Y778800D03*
D21*
X195580Y727012D03*
X195580Y771589D03*
D20*
X246380Y719800D03*
X246380Y778800D03*
D21*
X246380Y727012D03*
X246380Y771589D03*
D20*
X297180Y719800D03*
X297180Y778800D03*
D21*
X297180Y727012D03*
X297180Y771589D03*
D20*
X347980Y719800D03*
X347980Y778800D03*
D21*
X-7620Y727012D03*
X-7620Y771589D03*
X347980Y727012D03*
X347980Y771589D03*
D20*
X398780Y719800D03*
X398780Y778800D03*
D21*
X398780Y727012D03*
X398780Y771589D03*
D20*
X449580Y719800D03*
X449580Y778800D03*
D21*
X449580Y727012D03*
X449580Y771589D03*
D20*
X43180Y719800D03*
X43180Y778800D03*
D21*
X43180Y727012D03*
X43180Y771589D03*
D20*
X93980Y719800D03*
X93980Y778800D03*
D21*
X93980Y727012D03*
X93980Y771589D03*
D20*
X144780Y719800D03*
X144780Y778800D03*
D22*
X661970Y758850D03*
X661970Y768350D03*
X661970Y777850D03*
X635970Y777850D03*
X635970Y768350D03*
X635970Y758850D03*
X769320Y763880D03*
X769320Y754380D03*
X769320Y744880D03*
X795320Y744880D03*
X795320Y754380D03*
X795320Y763880D03*
D23*
X849630Y751720D03*
X849630Y736720D03*
X905510Y731400D03*
X905510Y716400D03*
X849630Y782200D03*
X849630Y767200D03*
D15*
X600320Y739140D03*
X583320Y739140D03*
D16*
X866140Y766200D03*
X866140Y783200D03*
D15*
X697620Y718820D03*
X714620Y718820D03*
X667140Y718820D03*
X684140Y718820D03*
X552840Y739140D03*
X569840Y739140D03*
D16*
X598170Y759850D03*
X598170Y776850D03*
D15*
X661280Y739140D03*
X644280Y739140D03*
D16*
X751840Y732400D03*
X751840Y715400D03*
X731520Y715400D03*
X731520Y732400D03*
X792480Y715400D03*
X792480Y732400D03*
D15*
X693030Y759460D03*
X676030Y759460D03*
D16*
X709930Y766200D03*
X709930Y783200D03*
X833120Y783200D03*
X833120Y766200D03*
X731520Y762880D03*
X731520Y745880D03*
D15*
X852560Y718820D03*
X869560Y718820D03*
X790820Y779780D03*
X773820Y779780D03*
D16*
X922020Y732400D03*
X922020Y715400D03*
D24*
X570230Y779350D03*
X579730Y757350D03*
X560730Y757350D03*
D25*
X1080770Y771610D03*
X1080770Y756610D03*
X1080770Y741610D03*
X1080770Y726610D03*
D26*
X1041770Y771610D03*
X1041770Y756610D03*
X1041770Y741610D03*
X1041770Y726610D03*
D17*
X677150Y739140D03*
X707150Y739140D03*
D27*
X990600Y749300D03*
X-74360Y749300D03*
M02*
